<svg id="Calque_1" data-name="Calque 1" xmlns="http://www.w3.org/2000/svg" viewBox="0 0 158.76 70.87"><defs><style>.cls-1{fill:#fff}</style></defs><path class="cls-1" d="M0 69.88h41.93V56.8H13.19V41.98h26.4V28.89h-26.4V14.08h28.74V.99H0v68.89z"/><path class="cls-1" d="m408.18 298.36-11.11-3.17c-3.73-1-6.89-3-6.89-7 0-4.83 3.94-7 9-7 4.43 0 8.57 2.26 9.85 6.69h14.66c-1.47-11.71-10-19.79-23.82-19.79-12 0-22.84 7.48-22.84 20.09 0 10.14 5.22 17.07 15.75 19.92l11.62 3.41c4.82 1.28 7.09 3.64 7.09 7.48 0 4.72-4 6.88-9.85 6.88-6.59 0-11.12-3.83-11.91-9.64h-13.62c.69 13.68 10.43 22.73 25.49 22.73s23-8.37 23-20-5.83-17.74-16.46-20.6" transform="translate(-326.01 -268.06)"/><path class="cls-1" d="M132.38 28.89v13.09h13.1v13.04h13.09V28.89h-26.19z"/><path class="cls-1" d="M484.58 287.85c-2.11-12-11.11-19.79-25.51-19.79s-23.39 7.75-25.5 19.79a32.81 32.81 0 0 0-.49 5.71v19.88c0 15.26 9.45 25.49 26 25.49v-13.09c-7.19 0-12.8-4.42-12.8-12.4v-19.88a13.37 13.37 0 0 1 1.19-5.71c2-4.34 6.39-6.69 11.61-6.69s9.61 2.36 11.64 6.69a14.16 14.16 0 0 1 .55 1.38h13.5c-.06-.47-.11-.92-.19-1.38Z" transform="translate(-326.01 -268.06)"/></svg>